CATALOG 0000000000000
FILE "Alice in Chains - Jar of Flies (USA) (CK 57628) (P) (Track 1).bin" BINARY
  TRACK 01 AUDIO
    INDEX 01 00:00:00
FILE "Alice in Chains - Jar of Flies (USA) (CK 57628) (P) (Track 2).bin" BINARY
  TRACK 02 AUDIO
    INDEX 00 00:00:00
    INDEX 01 00:00:55
FILE "Alice in Chains - Jar of Flies (USA) (CK 57628) (P) (Track 3).bin" BINARY
  TRACK 03 AUDIO
    INDEX 01 00:00:00
FILE "Alice in Chains - Jar of Flies (USA) (CK 57628) (P) (Track 4).bin" BINARY
  TRACK 04 AUDIO
    INDEX 01 00:00:00
FILE "Alice in Chains - Jar of Flies (USA) (CK 57628) (P) (Track 5).bin" BINARY
  TRACK 05 AUDIO
    INDEX 01 00:00:00
FILE "Alice in Chains - Jar of Flies (USA) (CK 57628) (P) (Track 6).bin" BINARY
  TRACK 06 AUDIO
    INDEX 01 00:00:00
FILE "Alice in Chains - Jar of Flies (USA) (CK 57628) (P) (Track 7).bin" BINARY
  TRACK 07 AUDIO
    INDEX 01 00:00:00
